<svg width="30" height="30" viewBox="0 0 30 30" fill="none" xmlns="http://www.w3.org/2000/svg">
<g clip-path="url(#clip0_291_1283)">
<path d="M19.2334 29.8721H26.9268C28.8564 29.8721 29.8467 28.9326 29.8467 26.9141V19.3096C29.8467 17.291 28.8564 16.3389 26.9268 16.3389H19.2334C17.291 16.3389 16.3135 17.291 16.3135 19.3096V26.9141C16.3135 28.9326 17.291 29.8721 19.2334 29.8721Z" fill="#FF375F"/>
<path d="M2.91992 29.8721H10.6133C12.543 29.8721 13.5332 28.9326 13.5332 26.9141V19.3096C13.5332 17.291 12.543 16.3389 10.6133 16.3389H2.91992C0.990234 16.3389 0 17.291 0 19.3096V26.9141C0 28.9326 0.990234 29.8721 2.91992 29.8721Z" fill="#FF375F"/>
<path d="M19.2334 13.5586H26.9268C28.8564 13.5586 29.8467 12.6191 29.8467 10.6006V2.99609C29.8467 0.977539 28.8564 0.0380859 26.9268 0.0380859H19.2334C17.291 0.0380859 16.3135 0.977539 16.3135 2.99609V10.6006C16.3135 12.6191 17.291 13.5586 19.2334 13.5586Z" fill="#FF375F" fill-opacity="0.7"/>
<path d="M2.91992 13.5586H10.6133C12.543 13.5586 13.5332 12.6191 13.5332 10.6006V2.99609C13.5332 0.977539 12.543 0.0380859 10.6133 0.0380859H2.91992C0.990234 0.0380859 0 0.977539 0 2.99609V10.6006C0 12.6191 0.990234 13.5586 2.91992 13.5586Z" fill="#FF375F"/>
</g>
<defs>
<clipPath id="clip0_291_1283">
<rect width="29.8467" height="29.8721" fill="white"/>
</clipPath>
</defs>
</svg>
