<svg width="202" height="234" viewBox="0 0 202 234" fill="none" xmlns="http://www.w3.org/2000/svg">
<rect y="32" width="96" height="96" rx="12" fill="#32ADE6"/>
<rect x="106" y="32" width="96" height="96" rx="12" fill="#32ADE6" fill-opacity="0.5"/>
<rect y="138" width="96" height="96" rx="12" fill="#32ADE6"/>
<rect x="106" y="138" width="96" height="96" rx="12" fill="#32ADE6"/>
<g clip-path="url(#clip0_309_1102)">
<path d="M173.977 0C158.358 0 151.215 6.36041 151.215 21.8259V47.162L151.428 56.056L144.498 48.6398L132.344 36.6053C131.891 36.1566 131.198 35.9191 130.505 35.9191C129.066 35.9191 128 37.0012 128 38.4527C128 39.1389 128.24 39.7195 128.8 40.3002L151.855 63.1289C152.414 63.7095 153.081 64 153.8 64C154.52 64 155.186 63.7095 155.746 63.1289L178.801 40.3002C179.361 39.7195 179.601 39.1389 179.601 38.4527C179.601 37.0012 178.535 35.9191 177.095 35.9191C176.402 35.9191 175.709 36.1566 175.256 36.6053L163.102 48.6398L156.146 56.0825L156.386 47.162L156.359 22.0635C156.332 9.60658 161.743 5.04082 174.243 5.04082C176.002 5.04082 177.202 5.14639 178.215 5.14639C179.707 5.14639 180.8 4.16989 180.8 2.66556C180.8 1.18763 179.761 0.448659 178.588 0.211134C177.655 0.0527837 175.949 0 173.977 0Z" fill="white"/>
</g>
<defs>
<clipPath id="clip0_309_1102">
<rect width="52.8" height="64" fill="white" transform="translate(128)"/>
</clipPath>
</defs>
</svg>
