<svg width="201" height="231" viewBox="0 0 201 231" fill="none" xmlns="http://www.w3.org/2000/svg">
<rect y="32" width="96" height="96" rx="12" fill="#32ADE6"/>
<rect x="104.8" y="32" width="96" height="96" rx="12" fill="#32ADE6" fill-opacity="0.5"/>
<rect x="104.8" y="134.4" width="96" height="96" rx="12" fill="#32ADE6"/>
<rect y="134.4" width="96" height="96" rx="12" fill="#32ADE6"/>
<g clip-path="url(#clip0_292_1241)">
<path d="M172.377 0C156.758 0 149.615 6.36041 149.615 21.8259V47.162L149.828 56.056L142.898 48.6398L130.744 36.6053C130.291 36.1566 129.598 35.9191 128.905 35.9191C127.466 35.9191 126.4 37.0012 126.4 38.4527C126.4 39.1389 126.64 39.7195 127.199 40.3002L150.255 63.1289C150.814 63.7095 151.481 64 152.2 64C152.92 64 153.586 63.7095 154.146 63.1289L177.201 40.3002C177.761 39.7195 178.001 39.1389 178.001 38.4527C178.001 37.0012 176.935 35.9191 175.495 35.9191C174.802 35.9191 174.109 36.1566 173.656 36.6053L161.502 48.6398L154.546 56.0825L154.786 47.162L154.759 22.0635C154.732 9.60658 160.143 5.04082 172.643 5.04082C174.402 5.04082 175.602 5.14639 176.615 5.14639C178.107 5.14639 179.2 4.16989 179.2 2.66556C179.2 1.18763 178.16 0.448659 176.988 0.211134C176.055 0.0527837 174.349 0 172.377 0Z" fill="black"/>
</g>
<defs>
<clipPath id="clip0_292_1241">
<rect width="52.8" height="64" fill="white" transform="translate(126.4)"/>
</clipPath>
</defs>
</svg>
